<svg data-v-423bf9ae="" xmlns="http://www.w3.org/2000/svg" viewBox="0 0 460 90" class="iconLeft"><!----><!----><!----><g data-v-423bf9ae="" id="13c388b6-9f0e-4123-bb65-0285017956f2" fill="black" transform="matrix(4.385964814437848,0,0,4.385964814437848,115.01128358398583,-2.9385967602959226)"><path d="M5.25 9.49L3.18 4.26L0.92 4.26L0.92 14.92L2.77 14.92L2.77 7.77L4.42 11.79L5.92 11.79L7.59 7.76L7.59 14.92L9.44 14.92L9.44 4.26L7.32 4.26ZM12.94 9.63C12.94 8.37 13.27 8.01 14.24 8.01C15.20 8.01 15.54 8.37 15.54 9.63L15.54 11.80C15.54 13.06 15.20 13.44 14.24 13.44C13.27 13.44 12.94 13.06 12.94 11.80ZM14.24 6.34C12.05 6.34 11.05 7.34 11.05 9.65L11.05 11.79C11.05 14.11 12.05 15.09 14.24 15.09C16.42 15.09 17.43 14.11 17.43 11.79L17.43 9.65C17.43 7.34 16.42 6.34 14.24 6.34ZM18.98 6.51L18.98 14.92L20.87 14.92L20.87 9.42C20.87 8.44 21.36 8.01 22.16 8.01C23.10 8.01 23.41 8.47 23.41 9.58L23.41 14.92L25.30 14.92L25.30 9.38C25.30 7.34 24.56 6.34 22.74 6.34C21.84 6.34 21.14 6.59 20.71 7.10L20.62 6.51ZM31.29 12.40C31.25 13.13 30.94 13.54 29.97 13.54C29.01 13.54 28.63 13.02 28.63 11.98L28.63 11.28L33.11 11.28L33.11 9.55C33.11 7.34 32.09 6.34 29.97 6.34C27.82 6.34 26.78 7.49 26.78 9.58L26.78 11.79C26.78 14.11 27.80 15.09 29.99 15.09C32.14 15.09 32.98 14.15 33.04 12.40ZM29.99 7.91C30.95 7.91 31.32 8.43 31.32 9.53L31.32 9.84L28.63 9.84L28.63 9.59C28.63 8.39 29.01 7.91 29.99 7.91ZM35.14 15.95C34.80 15.95 34.55 15.90 34.33 15.85L34.33 17.63C34.72 17.74 35 17.77 35.45 17.77C37.14 17.77 38.14 16.98 38.88 14.17L40.89 6.51L38.79 6.51L37.56 12.61L35.99 6.51L33.84 6.51L36.40 14.80L36.34 15.02C36.15 15.79 35.64 15.95 35.14 15.95ZM45.05 5.81C45.96 5.81 46.48 6.17 46.58 7.08L48.51 7.08C48.33 4.86 46.97 4.09 45.01 4.09C42.88 4.09 41.73 5.14 41.73 7.07C41.73 9.23 43.08 9.84 44.65 10.26C46.20 10.68 46.69 11.07 46.69 11.93C46.69 12.96 46.26 13.37 45.12 13.37C43.95 13.37 43.50 12.87 43.46 12.03L41.55 12.03C41.55 13.71 42.52 15.09 45.04 15.09C47.61 15.09 48.66 13.97 48.66 11.90C48.66 9.66 47.04 8.97 45.32 8.53C44.10 8.20 43.67 7.85 43.67 7.00C43.67 6.19 44.06 5.81 45.05 5.81ZM54.32 14.92L55.99 14.92L55.99 9.24C55.99 7.07 54.77 6.34 52.98 6.34C51.00 6.34 49.97 7.17 49.97 9.24L51.66 9.24C51.66 8.26 52.11 7.90 52.96 7.90C53.79 7.90 54.19 8.32 54.19 9.28L54.19 10.14C53.80 10.09 53.34 10.05 52.98 10.05C50.68 10.05 49.71 11.00 49.71 12.70C49.71 14.25 50.71 15.09 52.14 15.09C53.07 15.09 53.80 14.80 54.25 14.28ZM54.19 12.05C54.19 13.01 53.51 13.54 52.74 13.54C51.97 13.54 51.58 13.19 51.58 12.54C51.58 11.77 52.00 11.37 53.13 11.37C53.40 11.37 53.90 11.40 54.19 11.45ZM60.26 12.77L58.87 6.51L56.74 6.51L59.05 14.92L61.45 14.92L63.74 6.51L61.67 6.51ZM67.55 12.77L66.16 6.51L64.04 6.51L66.35 14.92L68.74 14.92L71.04 6.51L68.96 6.51ZM72.87 15.95C72.53 15.95 72.28 15.90 72.06 15.85L72.06 17.63C72.45 17.74 72.73 17.77 73.18 17.77C74.87 17.77 75.87 16.98 76.61 14.17L78.62 6.51L76.52 6.51L75.29 12.61L73.72 6.51L71.57 6.51L74.13 14.80L74.07 15.02C73.88 15.79 73.37 15.95 72.87 15.95Z"></path></g><!----><g data-v-423bf9ae="" id="4ce3f4ff-d8af-412b-85ce-cdedee3d3dc5" transform="matrix(1.1005312487405419,0,0,1.1005312487405419,-5.02597188696123,-9.915839641511667)" stroke="none" fill="black"><path d="M13.384 44.255L5.163 74.938a4.794 4.794 0 0 0 3.387 5.864l15.76 4.222-10.926-40.769zM22.46 53.458l9.078 33.882a4.794 4.794 0 0 0 5.864 3.387l17.609-4.721L22.46 53.458zM49.642 45.608a5.907 5.907 0 0 0-1.043-1.334l-1.379-1.33a5.677 5.677 0 0 0-1.38-.986 4.402 4.402 0 0 0-1.539-.464 3.517 3.517 0 0 0-1.578.205c-.53.191-1.025.526-1.485 1.003-.473.489-.791.999-.957 1.53a3.532 3.532 0 0 0-.139 1.576c.074.521.247 1.028.521 1.521.272.493.617.941 1.035 1.344l1.379 1.33c.417.402.874.728 1.371.977s1.01.398 1.537.447a3.648 3.648 0 0 0 1.589-.213c.529-.192 1.03-.532 1.502-1.021.461-.477.773-.981.939-1.512a3.6 3.6 0 0 0 .148-1.568 4.085 4.085 0 0 0-.521-1.505z"></path><path d="M93.597 47.856L54.855 9.114 27.386 9.11a6.388 6.388 0 0 0-6.387 6.387l-.001 27.473 38.743 38.743a4.787 4.787 0 0 0 6.772 0l27.083-27.086a4.785 4.785 0 0 0 .001-6.771zM35.28 23.395a4.785 4.785 0 0 1-6.772 0 4.788 4.788 0 1 1 6.772 0zm17.654 26.233c-.347.933-.917 1.81-1.71 2.634-.806.835-1.671 1.446-2.596 1.832a7.169 7.169 0 0 1-2.786.579 6.825 6.825 0 0 1-2.727-.574 8.109 8.109 0 0 1-2.422-1.626l-1.379-1.33a8.172 8.172 0 0 1-1.73-2.378 7.062 7.062 0 0 1-.692-2.705 6.942 6.942 0 0 1 .459-2.804c.354-.938.926-1.819 1.72-2.643.806-.835 1.672-1.446 2.596-1.832.925-.386 1.851-.57 2.777-.552s1.833.219 2.72.601a8.165 8.165 0 0 1 2.438 1.644l1.378 1.33a8.286 8.286 0 0 1 1.724 2.351c.42.866.649 1.761.69 2.687a7.11 7.11 0 0 1-.46 2.786zm8.372 14.531l-8.1-32.368 2.995-.74L64.3 63.419l-2.994.74zm18.56-13.052c-.347.933-.916 1.811-1.71 2.634-.806.835-1.671 1.446-2.597 1.832a7.156 7.156 0 0 1-2.784.579c-.933 0-1.843-.192-2.729-.575s-1.699-.93-2.439-1.645l-1.396-1.346a8.196 8.196 0 0 1-1.723-2.369 6.92 6.92 0 0 1-.691-2.705c-.04-.925.116-1.857.468-2.796.353-.938.926-1.819 1.72-2.642.805-.835 1.671-1.447 2.596-1.833.925-.386 1.851-.576 2.776-.569a6.914 6.914 0 0 1 2.728.592 8.198 8.198 0 0 1 2.431 1.635l1.396 1.346a8.17 8.17 0 0 1 1.731 2.378c.414.872.642 1.771.682 2.696a7.038 7.038 0 0 1-.459 2.788z"></path><path d="M76.558 47.07a5.943 5.943 0 0 0-1.045-1.335l-1.396-1.346a5.658 5.658 0 0 0-1.38-.986 4.294 4.294 0 0 0-1.53-.456 3.568 3.568 0 0 0-1.569.213c-.53.191-1.025.526-1.485 1.003-.461.477-.773.981-.94 1.512a3.758 3.758 0 0 0-.155 1.576 4.11 4.11 0 0 0 .503 1.521c.271.494.617.941 1.035 1.344l1.396 1.346c.418.403.877.731 1.38.986s1.02.407 1.548.456a3.643 3.643 0 0 0 1.587-.213c.53-.192 1.03-.532 1.503-1.022.46-.477.772-.981.939-1.511a3.563 3.563 0 0 0 .14-1.576 4.291 4.291 0 0 0-.531-1.512z"></path></g><!----></svg>