<svg data-v-423bf9ae="" xmlns="http://www.w3.org/2000/svg" viewBox="0 0 340.7894861591744 60" class="font"><!----><!----><!----><g data-v-423bf9ae="" id="f7ae3a59-1d8e-486d-a968-a0e467162b62" fill="black" transform="matrix(4.385964814437848,0,0,4.385964814437848,-4.035087875975108,-17.938596760295923)"><path d="M5.25 9.49L3.18 4.26L0.92 4.26L0.92 14.92L2.77 14.92L2.77 7.77L4.42 11.79L5.92 11.79L7.59 7.76L7.59 14.92L9.44 14.92L9.44 4.26L7.32 4.26ZM12.94 9.63C12.94 8.37 13.27 8.01 14.24 8.01C15.20 8.01 15.54 8.37 15.54 9.63L15.54 11.80C15.54 13.06 15.20 13.44 14.24 13.44C13.27 13.44 12.94 13.06 12.94 11.80ZM14.24 6.34C12.05 6.34 11.05 7.34 11.05 9.65L11.05 11.79C11.05 14.11 12.05 15.09 14.24 15.09C16.42 15.09 17.43 14.11 17.43 11.79L17.43 9.65C17.43 7.34 16.42 6.34 14.24 6.34ZM18.98 6.51L18.98 14.92L20.87 14.92L20.87 9.42C20.87 8.44 21.36 8.01 22.16 8.01C23.10 8.01 23.41 8.47 23.41 9.58L23.41 14.92L25.30 14.92L25.30 9.38C25.30 7.34 24.56 6.34 22.74 6.34C21.84 6.34 21.14 6.59 20.71 7.10L20.62 6.51ZM31.29 12.40C31.25 13.13 30.94 13.54 29.97 13.54C29.01 13.54 28.63 13.02 28.63 11.98L28.63 11.28L33.11 11.28L33.11 9.55C33.11 7.34 32.09 6.34 29.97 6.34C27.82 6.34 26.78 7.49 26.78 9.58L26.78 11.79C26.78 14.11 27.80 15.09 29.99 15.09C32.14 15.09 32.98 14.15 33.04 12.40ZM29.99 7.91C30.95 7.91 31.32 8.43 31.32 9.53L31.32 9.84L28.63 9.84L28.63 9.59C28.63 8.39 29.01 7.91 29.99 7.91ZM35.14 15.95C34.80 15.95 34.55 15.90 34.33 15.85L34.33 17.63C34.72 17.74 35 17.77 35.45 17.77C37.14 17.77 38.14 16.98 38.88 14.17L40.89 6.51L38.79 6.51L37.56 12.61L35.99 6.51L33.84 6.51L36.40 14.80L36.34 15.02C36.15 15.79 35.64 15.95 35.14 15.95ZM45.05 5.81C45.96 5.81 46.48 6.17 46.58 7.08L48.51 7.08C48.33 4.86 46.97 4.09 45.01 4.09C42.88 4.09 41.73 5.14 41.73 7.07C41.73 9.23 43.08 9.84 44.65 10.26C46.20 10.68 46.69 11.07 46.69 11.93C46.69 12.96 46.26 13.37 45.12 13.37C43.95 13.37 43.50 12.87 43.46 12.03L41.55 12.03C41.55 13.71 42.52 15.09 45.04 15.09C47.61 15.09 48.66 13.97 48.66 11.90C48.66 9.66 47.04 8.97 45.32 8.53C44.10 8.20 43.67 7.85 43.67 7.00C43.67 6.19 44.06 5.81 45.05 5.81ZM54.32 14.92L55.99 14.92L55.99 9.24C55.99 7.07 54.77 6.34 52.98 6.34C51.00 6.34 49.97 7.17 49.97 9.24L51.66 9.24C51.66 8.26 52.11 7.90 52.96 7.90C53.79 7.90 54.19 8.32 54.19 9.28L54.19 10.14C53.80 10.09 53.34 10.05 52.98 10.05C50.68 10.05 49.71 11.00 49.71 12.70C49.71 14.25 50.71 15.09 52.14 15.09C53.07 15.09 53.80 14.80 54.25 14.28ZM54.19 12.05C54.19 13.01 53.51 13.54 52.74 13.54C51.97 13.54 51.58 13.19 51.58 12.54C51.58 11.77 52.00 11.37 53.13 11.37C53.40 11.37 53.90 11.40 54.19 11.45ZM60.26 12.77L58.87 6.51L56.74 6.51L59.05 14.92L61.45 14.92L63.74 6.51L61.67 6.51ZM67.55 12.77L66.16 6.51L64.04 6.51L66.35 14.92L68.74 14.92L71.04 6.51L68.96 6.51ZM72.87 15.95C72.53 15.95 72.28 15.90 72.06 15.85L72.06 17.63C72.45 17.74 72.73 17.77 73.18 17.77C74.87 17.77 75.87 16.98 76.61 14.17L78.62 6.51L76.52 6.51L75.29 12.61L73.72 6.51L71.57 6.51L74.13 14.80L74.07 15.02C73.88 15.79 73.37 15.95 72.87 15.95Z"></path></g><!----><!----></svg>